<?xml version="1.0" encoding="UTF-8" standalone="no"?>
<!-- Created with Inkscape (http://www.inkscape.org/) -->

<svg
   width="26.458332mm"
   height="26.458334mm"
   viewBox="0 0 26.458332 26.458334"
   version="1.1"
   id="svg1"
   sodipodi:docname="kt_icon.svg"
   xml:space="preserve"
   inkscape:version="1.4 (86a8ad7, 2024-10-11)"
   xmlns:inkscape="http://www.inkscape.org/namespaces/inkscape"
   xmlns:sodipodi="http://sodipodi.sourceforge.net/DTD/sodipodi-0.dtd"
   xmlns="http://www.w3.org/2000/svg"
   xmlns:svg="http://www.w3.org/2000/svg"><sodipodi:namedview
     id="namedview1"
     pagecolor="#ffffff"
     bordercolor="#000000"
     borderopacity="0.25"
     inkscape:showpageshadow="2"
     inkscape:pageopacity="0.0"
     inkscape:pagecheckerboard="0"
     inkscape:deskcolor="#d1d1d1"
     inkscape:document-units="mm"
     inkscape:zoom="6.6715523"
     inkscape:cx="-0.44967046"
     inkscape:cy="52.686389"
     inkscape:window-width="3840"
     inkscape:window-height="2089"
     inkscape:window-x="-8"
     inkscape:window-y="-8"
     inkscape:window-maximized="1"
     inkscape:current-layer="svg1" /><defs
     id="defs1" /><path
     id="rect1"
     style="fill:#000000"
     d="M 0.52917206 9.1692347e-06 C 0.23601406 9.1692347e-06 5.0615831e-06 0.23601816 5.0615831e-06 0.52917616 L 5.0615831e-06 4.7625121 C 5.0615831e-06 5.0556721 0.23601406 5.2916791 0.52917206 5.2916791 L 4.762508 5.2916791 C 5.055668 5.2916791 5.291675 5.0556721 5.291675 4.7625121 L 5.291675 0.52917616 C 5.291675 0.23601816 5.055668 9.1692347e-06 4.762508 9.1692347e-06 L 0.52917206 9.1692347e-06 z M 1.4698904 1.2347666 L 2.097036 1.2347666 L 1.6266768 2.6458441 C 1.6266768 2.6458441 2.0971197 1.2347666 2.8810713 1.2347666 L 4.762508 1.2347666 C 4.762508 1.2347666 4.2921605 1.7051258 3.8217897 1.7051258 L 3.6650033 1.7051258 L 2.8810713 4.0569217 L 2.2538224 4.0569217 L 1.4556277 3.1589914 L 1.1563176 4.0569217 L 0.52917206 4.0569217 L 0.99953123 2.6458441 L 1.4698904 1.2347666 z M 1.6266768 2.6458441 L 2.4248715 3.5437744 L 3.0378577 1.7051258 L 2.8810713 1.7051258 C 2.0971197 1.7051258 1.6266768 2.6458441 1.6266768 2.6458441 z "
     transform="matrix(4.9999969,0,0,4.9999969,-2.53079e-5,-4.5846145e-5)" /></svg>
