<?xml version="1.0" encoding="UTF-8" standalone="no"?>
<!-- Created with Inkscape (http://www.inkscape.org/) -->

<svg
   width="1349.9999"
   height="1299.3749"
   viewBox="0 0 357.18745 343.79294"
   version="1.1"
   id="svg5"
   xmlns="http://www.w3.org/2000/svg"
   xmlns:svg="http://www.w3.org/2000/svg">
  <defs
     id="defs2" />
  <g
     id="layer1"
     transform="translate(-39.687504,-26.45834)"
     style="fill:#ffffff">
    <path
       style="fill:#ffffff;fill-opacity:1;stroke:none;stroke-width:52.9167;stroke-linecap:butt;stroke-linejoin:miter;stroke-miterlimit:0;stroke-dasharray:none;stroke-dashoffset:0;stroke-opacity:1"
       d="M 39.687504,264.58331 119.0625,26.45834 h 52.91666 L 92.604169,264.58331 H 39.687504"
       id="path9282" />
    <path
       style="fill:#ffffff;fill-opacity:1;stroke:none;stroke-width:52.9167;stroke-linecap:butt;stroke-linejoin:miter;stroke-miterlimit:0;stroke-dasharray:none;stroke-dashoffset:0;stroke-opacity:1"
       d="m 185.20833,264.58331 79.37499,-238.12497 52.91666,7e-6 -79.37499,238.124963 h -52.91666"
       id="path9282-3" />
    <path
       style="fill:#ffffff;fill-opacity:1;stroke:none;stroke-width:52.9167;stroke-linecap:butt;stroke-linejoin:miter;stroke-miterlimit:0;stroke-dasharray:none;stroke-dashoffset:0;stroke-opacity:1"
       d="M 79.375004,145.52082 H 132.29167 L 238.12498,264.58331 H 185.20833 L 79.375004,145.52082"
       id="path9320" />
    <path
       style="fill:#ffffff;fill-opacity:1;stroke:none;stroke-width:52.9167;stroke-linecap:butt;stroke-linejoin:miter;stroke-miterlimit:0;stroke-dasharray:none;stroke-dashoffset:0;stroke-opacity:1"
       d="m 132.29167,145.52082 c 0,0 39.68749,-119.062479 105.83332,-119.062479 h 158.74999 c 0,0 -39.6875,39.687499 -79.37499,39.687497 l -52.91667,-10e-7 c 0,0 39.68749,10e-7 -26.45833,10e-7 -66.14583,0 -105.83332,79.374982 -105.83332,79.374982"
       id="path9322" />
    <path
       style="font-weight:bold;font-size:28.2222px;font-family:'Neue Haas Grotesk Text Pro';-inkscape-font-specification:'Neue Haas Grotesk Text Pro Bold';text-align:center;text-anchor:middle;fill:#ffffff;stroke-width:52.9167;stroke-miterlimit:0"
       d="M 75.210051,365.26279 V 344.2615 h 4.795569 v 3.44509 q 0,1.43316 -0.0689,2.78364 -0.05512,1.33669 -0.09646,2.19108 l 7.841032,-8.41981 h 5.760195 l -8.102859,8.44737 8.612733,12.55392 h -5.622392 l -6.407873,-9.50846 -1.915471,1.99815 v 7.51031 z M 93.3588,359.7093 v -3.84473 h 7.99262 v 3.84473 z m 13.84927,5.55349 v -16.90852 h -6.24251 v -4.09277 h 17.33571 v 4.09277 h -6.27007 v 16.90852 z m 11.38259,0 v -15.15841 h 4.31326 v 2.71473 h 0.0827 q 0.73036,-1.59852 1.76389,-2.28754 1.04731,-0.68902 2.4529,-0.68902 0.33073,0 0.565,0.0276 0.23426,0.0276 0.38585,0.0965 v 3.89985 h -0.12402 q -0.22049,-0.0413 -0.46854,-0.0551 -0.23426,-0.0276 -0.46853,-0.0276 -0.9095,0 -1.65364,0.27561 -0.73036,0.2756 -1.2678,0.8406 -0.52365,0.55121 -0.81304,1.37803 -0.27561,0.82683 -0.27561,1.94304 v 7.04177 z m 11.67198,0 v -15.15841 h 4.43728 v 15.15841 z m -0.0276,-17.26681 v -3.87228 h 4.49241 v 3.87228 z m 11.92002,17.66644 q -1.47449,0 -2.64583,-0.50988 -1.15755,-0.52365 -1.83279,-1.5434 -0.66145,-1.01975 -0.66145,-2.49424 0,-1.66743 0.78548,-2.59071 0.79926,-0.92329 2.13596,-1.35048 1.35047,-0.44097 2.97656,-0.6339 1.35047,-0.17914 2.17729,-0.39963 0.84061,-0.23427 1.22646,-0.59255 0.38585,-0.35829 0.38585,-0.92329 0,-0.81304 -0.55122,-1.30914 -0.53743,-0.49609 -1.6812,-0.49609 -1.2678,0 -1.90169,0.53744 -0.6339,0.53743 -0.71658,1.43315 h -4.09277 q 0.0551,-1.28157 0.78548,-2.41156 0.73036,-1.14377 2.1773,-1.84657 1.46072,-0.7028 3.69314,-0.7028 1.43315,0 2.48046,0.22049 1.06109,0.2067 1.83279,0.67524 1.17133,0.67523 1.72255,1.819 0.56499,1.14377 0.56499,2.6734 v 7.70322 q 0,0.88195 0.13781,1.39182 0.1378,0.50987 0.42719,0.7028 v 0.24805 h -4.31326 q -0.17914,-0.26183 -0.31695,-0.73036 -0.12402,-0.46854 -0.19292,-1.10243 h -0.0551 q -0.74414,1.03353 -1.77767,1.63986 -1.03353,0.59256 -2.76986,0.59256 z m 1.39182,-2.90766 q 0.99219,0 1.72255,-0.37207 0.73036,-0.38585 1.12999,-1.03353 0.41341,-0.66146 0.41341,-1.4745 v -1.94303 q -0.31695,0.19292 -0.74414,0.34451 -0.41341,0.1378 -0.88194,0.26183 -0.46854,0.12402 -0.96463,0.23426 -0.97841,0.20671 -1.62608,0.46853 -0.6339,0.26183 -0.95085,0.67524 -0.30317,0.39963 -0.30317,1.06109 0,0.64768 0.28939,1.04731 0.30317,0.38585 0.79926,0.56499 0.50988,0.16537 1.11621,0.16537 z m 10.36284,2.50803 v -15.15841 h 4.31326 v 2.71473 h 0.0827 q 0.73036,-1.59852 1.76389,-2.28754 1.04731,-0.68902 2.4529,-0.68902 0.33073,0 0.565,0.0276 0.23427,0.0276 0.38585,0.0965 v 3.89985 h -0.12402 q -0.22049,-0.0413 -0.46854,-0.0551 -0.23426,-0.0276 -0.46853,-0.0276 -0.9095,0 -1.65364,0.27561 -0.73036,0.2756 -1.2678,0.8406 -0.52365,0.55121 -0.81304,1.37803 -0.27561,0.82683 -0.27561,1.94304 v 7.04177 z m 18.79642,0 V 344.2615 h 4.79557 v 16.88096 h 9.68761 v 4.12033 z m 21.81434,0.42719 q -1.72255,0 -2.90766,-0.68902 -1.18511,-0.7028 -1.80523,-1.95681 -0.60633,-1.25402 -0.60633,-2.92144 v -10.01833 h 4.47862 v 9.17773 q 0,1.25401 0.60633,1.95681 0.60634,0.68902 1.80523,0.68902 0.89573,0 1.5434,-0.41341 0.66146,-0.4272 1.00597,-1.15756 0.35829,-0.73035 0.35829,-1.66742 v -8.58517 h 4.40972 v 15.15841 h -4.24436 v -2.1773 h -0.0827 q -0.55121,0.88194 -1.21267,1.46072 -0.64768,0.57877 -1.4745,0.85438 -0.82682,0.28939 -1.87413,0.28939 z m 11.89245,-0.42719 V 344.2615 h 4.45106 v 21.00129 z m 7.41384,0 v -15.15841 h 4.43728 v 15.15841 z m -0.0276,-17.26681 v -3.87228 h 4.4924 v 3.87228 z m 19.74728,17.26681 v -16.90852 h -6.24251 v -4.09277 h 17.33571 v 4.09277 h -6.27007 v 16.90852 z m 11.38258,0 v -15.15841 h 4.31326 v 2.71473 h 0.0827 q 0.73036,-1.59852 1.76389,-2.28754 1.04731,-0.68902 2.4529,-0.68902 0.33073,0 0.565,0.0276 0.23426,0.0276 0.38585,0.0965 v 3.89985 h -0.12402 q -0.22049,-0.0413 -0.46854,-0.0551 -0.23426,-0.0276 -0.46853,-0.0276 -0.9095,0 -1.65364,0.27561 -0.73036,0.2756 -1.2678,0.8406 -0.52365,0.55121 -0.81304,1.37803 -0.27561,0.82683 -0.27561,1.94304 v 7.04177 z m 15.91634,0.39963 q -1.4745,0 -2.64583,-0.50988 -1.15756,-0.52365 -1.83279,-1.5434 -0.66146,-1.01975 -0.66146,-2.49424 0,-1.66743 0.78548,-2.59071 0.79926,-0.92329 2.13596,-1.35048 1.35047,-0.44097 2.97656,-0.6339 1.35047,-0.17914 2.1773,-0.39963 0.8406,-0.23427 1.22645,-0.59255 0.38585,-0.35829 0.38585,-0.92329 0,-0.81304 -0.55122,-1.30914 -0.53743,-0.49609 -1.6812,-0.49609 -1.26779,0 -1.90169,0.53744 -0.6339,0.53743 -0.71658,1.43315 h -4.09277 q 0.0551,-1.28157 0.78548,-2.41156 0.73036,-1.14377 2.1773,-1.84657 1.46072,-0.7028 3.69314,-0.7028 1.43316,0 2.48046,0.22049 1.06109,0.2067 1.83279,0.67524 1.17134,0.67523 1.72255,1.819 0.565,1.14377 0.565,2.6734 v 7.70322 q 0,0.88195 0.1378,1.39182 0.1378,0.50987 0.42719,0.7028 v 0.24805 h -4.31326 q -0.17914,-0.26183 -0.31694,-0.73036 -0.12403,-0.46854 -0.19293,-1.10243 h -0.0551 q -0.74414,1.03353 -1.77767,1.63986 -1.03353,0.59256 -2.76985,0.59256 z m 1.39181,-2.90766 q 0.99219,0 1.72255,-0.37207 0.73036,-0.38585 1.12999,-1.03353 0.41341,-0.66146 0.41341,-1.4745 v -1.94303 q -0.31695,0.19292 -0.74414,0.34451 -0.41341,0.1378 -0.88194,0.26183 -0.46853,0.12402 -0.96463,0.23426 -0.9784,0.20671 -1.62608,0.46853 -0.6339,0.26183 -0.95085,0.67524 -0.30317,0.39963 -0.30317,1.06109 0,0.64768 0.28939,1.04731 0.30317,0.38585 0.79926,0.56499 0.50988,0.16537 1.11621,0.16537 z m 10.33528,2.50803 v -15.15841 h 4.32704 v 2.3151 h 0.0827 q 0.48231,-0.92328 1.17133,-1.51584 0.68902,-0.60634 1.57096,-0.9095 0.88195,-0.30317 1.94304,-0.30317 1.66742,0 2.83875,0.68902 1.17133,0.68901 1.79145,1.95681 0.6339,1.25401 0.6339,2.949 v 9.97699 h -4.45106 v -9.10883 q 0,-1.24023 -0.64768,-1.99815 -0.64768,-0.7717 -1.88791,-0.7717 -0.86816,0 -1.52962,0.42719 -0.64768,0.42719 -1.01975,1.18511 -0.35829,0.74414 -0.35829,1.72255 v 8.54383 z m 23.41286,0.41341 q -2.16352,0 -3.74826,-0.64768 -1.57097,-0.64768 -2.45291,-1.80523 -0.88194,-1.15755 -0.99219,-2.65961 h 4.17546 q 0.19292,1.06109 0.96462,1.63986 0.78548,0.565 2.08084,0.565 1.18511,0 1.83279,-0.45475 0.64768,-0.46854 0.64768,-1.2678 0,-0.67523 -0.53744,-1.00596 -0.52365,-0.34451 -1.4056,-0.52366 -0.86816,-0.19292 -1.91547,-0.38585 -1.00597,-0.19292 -1.97059,-0.45475 -0.96463,-0.27561 -1.73633,-0.75792 -0.7717,-0.49609 -1.22645,-1.32292 -0.45475,-0.8406 -0.45475,-2.14973 0,-1.54341 0.8406,-2.57693 0.8406,-1.04731 2.27376,-1.57097 1.43316,-0.53743 3.19705,-0.53743 2.09461,0 3.50021,0.56499 1.4056,0.55122 2.19108,1.55719 0.78548,0.99218 0.97841,2.30132 h -4.12034 q -0.1378,-0.53744 -0.46853,-0.89573 -0.33073,-0.35829 -0.85438,-0.52365 -0.50987,-0.17914 -1.22645,-0.17914 -1.00597,0 -1.61231,0.39963 -0.60633,0.39963 -0.60633,1.11621 0,0.56499 0.49609,0.85438 0.49609,0.28939 1.32292,0.45475 0.8406,0.16537 1.87413,0.35829 1.00596,0.17915 2.01193,0.45475 1.01975,0.27561 1.86035,0.79926 0.8406,0.50988 1.35048,1.4056 0.50987,0.88195 0.50987,2.30132 0,1.62609 -0.88194,2.72852 -0.88195,1.10243 -2.41157,1.66742 -1.52962,0.55122 -3.48643,0.55122 z m 8.86076,4.57508 v -20.1469 h 4.31326 v 2.16352 h 0.0827 q 0.50987,-0.86817 1.18511,-1.43316 0.67524,-0.565 1.52962,-0.8406 0.85439,-0.28939 1.88791,-0.28939 1.99816,0 3.45888,1.03353 1.46072,1.01974 2.2462,2.82497 0.79926,1.79145 0.79926,4.10655 0,2.43913 -0.82682,4.24436 -0.81304,1.79144 -2.3151,2.78363 -1.48828,0.97841 -3.514,0.97841 -1.48828,0 -2.64583,-0.6339 -1.15755,-0.6339 -1.80523,-1.72255 h -0.0551 q 0.0413,0.4272 0.0827,1.25402 0.0551,0.81304 0.0551,2.02571 v 3.6518 z m 7.79969,-8.04774 q 1.00597,0 1.70877,-0.53743 0.71658,-0.55121 1.08865,-1.5434 0.38585,-0.99219 0.38585,-2.3151 0,-1.35048 -0.35829,-2.37023 -0.35829,-1.01975 -1.07487,-1.59852 -0.71658,-0.57878 -1.80523,-0.57878 -1.14377,0 -1.90169,0.60634 -0.75792,0.60634 -1.12999,1.63986 -0.37207,1.01975 -0.37207,2.30133 0,1.26779 0.38585,2.27376 0.39963,0.99218 1.17133,1.55718 0.7717,0.56499 1.90169,0.56499 z m 17.18414,3.45888 q -2.39779,0 -4.18923,-1.04731 -1.79145,-1.06109 -2.78364,-2.86632 -0.99219,-1.80523 -0.99219,-4.05143 0,-2.25998 0.99219,-4.05143 0.99219,-1.80522 2.78364,-2.85253 1.79144,-1.04731 4.18923,-1.04731 2.384,0 4.16167,1.04731 1.77767,1.04731 2.75608,2.85253 0.9784,1.79145 0.9784,4.05143 0,2.2462 -0.9784,4.05143 -0.97841,1.80523 -2.75608,2.86632 -1.77767,1.04731 -4.16167,1.04731 z m -0.0276,-3.22461 q 1.10243,0 1.87413,-0.59256 0.7717,-0.60633 1.17133,-1.66742 0.39963,-1.07487 0.39963,-2.48047 0,-1.43316 -0.39963,-2.50802 -0.39963,-1.07487 -1.17133,-1.68121 -0.7717,-0.60634 -1.87413,-0.60634 -1.12999,0 -1.90169,0.60634 -0.75792,0.60634 -1.15755,1.68121 -0.38585,1.07486 -0.38585,2.50802 0,1.4056 0.38585,2.48047 0.39963,1.06109 1.15755,1.66742 0.7717,0.59256 1.90169,0.59256 z m 10.05965,2.82498 v -15.15841 h 4.31326 v 2.71473 h 0.0827 q 0.73036,-1.59852 1.76389,-2.28754 1.0473,-0.68902 2.4529,-0.68902 0.33073,0 0.565,0.0276 0.23426,0.0276 0.38585,0.0965 v 3.89985 h -0.12403 q -0.22048,-0.0413 -0.46853,-0.0551 -0.23427,-0.0276 -0.46853,-0.0276 -0.90951,0 -1.65365,0.27561 -0.73036,0.2756 -1.26779,0.8406 -0.52365,0.55121 -0.81304,1.37803 -0.27561,0.82683 -0.27561,1.94304 v 7.04177 z m 18.09364,0.16536 q -1.4056,0 -2.48046,-0.35829 -1.06109,-0.35829 -1.65365,-1.22645 -0.59255,-0.86816 -0.59255,-2.39779 v -8.4887 h -2.28755 v -2.85254 h 2.28755 v -4.83691 h 4.36837 v 4.83691 h 2.96278 v 2.85254 h -2.96278 v 7.52408 q 0,0.8406 0.44097,1.14377 0.45476,0.30317 1.25402,0.30317 0.22048,0 0.50987,-0.0138 0.28939,-0.0276 0.50988,-0.0413 h 0.22048 v 3.33485 q -0.35829,0.0551 -1.01975,0.1378 -0.66145,0.0827 -1.55718,0.0827 z"
       id="text9353"
       aria-label="K-Triar Luli Transport" />
    <path
       style="font-weight:bold;font-size:52.9167px;font-family:'FOT-RodinNTLG Pro';-inkscape-font-specification:'FOT-RodinNTLG Pro Bold';text-align:center;text-anchor:middle;fill:#ffffff;stroke-width:52.9167;stroke-miterlimit:0"
       d="M 78.954618,330.72913 62.232941,306.22869 77.578783,289.4541 h -9.154588 l -15.24001,16.45709 V 289.4541 h -7.725837 v 41.27503 h 7.725837 v -15.02835 l 3.704169,-3.81 12.752925,18.83835 z M 125.41545,310.0387 c -9.41917,-2.69875 -19.52626,-4.86834 -29.739187,-6.93209 V 288.5016 h -7.514171 v 45.40253 h 7.514171 v -23.49502 c 9.419177,1.95792 19.579177,4.39209 29.739187,7.19667 z m 51.22336,-12.85876 v -6.77334 h -38.20585 v 6.77334 z m 2.91042,6.19125 H 135.4167 v 6.50876 h 35.29544 c -3.22792,10.31875 -12.96459,15.76917 -28.57502,16.82751 v 6.6675 c 24.55335,-0.58208 36.14211,-11.85334 37.41211,-28.99835 z m 37.51794,31.27377 v -28.31043 c 6.0325,-4.23334 10.95375,-9.78959 13.81125,-17.35668 h -8.20208 c -4.49792,9.20751 -14.28751,17.03918 -34.92503,20.9021 v 6.87917 c 7.30251,-1.11125 14.92251,-2.96334 21.69585,-6.08542 v 23.97126 z m 26.82877,-1.00542 c 8.255,-2.11666 15.13417,-6.77333 18.52084,-15.18709 11.58876,-1.95792 22.43668,-9.36625 22.91293,-26.67001 v -1.32292 h -43.02128 v 6.72042 h 34.87211 c -1.27,7.03792 -5.34459,11.95917 -12.75293,13.97001 0.21167,-1.905 0.37042,-3.91584 0.37042,-6.08542 v -3.175 h -6.985 v 2.80458 c 0,12.38251 -4.97417,18.67959 -13.91709,22.11918 z m 87.57713,-23.75959 c 7.30251,-0.79375 7.72584,-1.74625 7.72584,-13.07043 v -8.46667 h -15.34584 v 3.43959 l -3.01625,-5.13292 c -4.445,1.85208 -11.64168,2.06375 -11.64168,2.06375 v 15.87501 c -0.52916,0.15875 -1.11125,0.3175 -1.5875,0.37041 l 1.5875,5.87376 c 4.92126,-1.48167 8.20209,-2.80459 10.47751,-3.81 0.3175,0.84666 0.635,1.69333 0.89959,2.48708 l 3.22791,-2.38125 2.43417,3.43958 c 1.53459,-1.5875 2.59292,-3.65125 3.38667,-5.87375 z m -22.91293,8.255 c -1.5875,0.74084 -3.22791,1.37584 -4.65666,1.79917 v -9.89542 h 3.4925 v -6.03251 h -3.4925 v -8.41375 h 3.81 v -6.03251 h -14.23459 v 6.03251 h 4.07458 v 8.41375 h -4.02167 v 6.03251 h 4.02167 v 11.48292 c -1.48167,0.47625 -3.43958,0.89958 -5.18584,1.16417 l 1.37584,6.56167 c 5.23875,-1.27 10.42459,-2.96334 14.81667,-4.81542 z m 29.79211,16.56293 v -23.65377 h -28.15169 v 23.65377 h 6.35001 v -2.11667 h 15.45167 v 2.11667 z M 325.8639,294.2166 c 0,2.32834 -0.58208,6.29709 -1.95791,8.83709 -1.48167,-3.4925 -3.22792,-7.09083 -3.22792,-7.09083 l -4.28625,2.43416 c 0,0 0.74083,1.53459 1.42875,3.43959 -0.68792,0.3175 -1.5875,0.74083 -2.59292,1.00542 v -9.04876 c 2.69875,-0.26458 5.76792,-0.84667 8.62542,-1.85208 v 2.01083 h 2.01083 z m 7.51418,6.87917 c 0,2.54001 -0.37042,2.64584 -3.49251,2.64584 1.16417,-3.4925 1.48167,-7.67292 1.48167,-9.78959 h 2.01084 z m -1.16417,18.52085 h -5.02709 v -3.54542 h 5.02709 z m -10.84792,0 h -5.02709 v -3.54542 h 5.02709 z m 10.84792,7.9375 h -5.02709 v -3.70416 h 5.02709 z m -10.84792,0 h -5.02709 v -3.70416 h 5.02709 z m 40.11086,-8.83708 c -1.37584,0.68791 -2.80459,1.21708 -4.60376,1.74625 v -10.05418 h 3.96876 v -6.0325 h -3.96876 v -8.255 h 4.39209 v -6.03251 h -14.86959 v 6.03251 h 4.1275 v 8.255 h -4.07459 v 6.0325 h 4.07459 v 11.64168 c -1.85208,0.47625 -3.12209,0.84666 -5.23875,1.16416 l 1.37583,6.56168 c 5.02709,-1.27001 9.63084,-2.80459 14.81668,-4.81542 z m 22.54251,15.98084 c 7.77875,-0.58209 8.09626,-1.32292 8.09626,-10.95376 v -10.00125 h -13.54668 c 0.15875,-0.68792 0.26458,-1.58751 0.37042,-2.22251 h 11.95917 v -14.12875 h -5.87375 v 8.89 h -2.91042 l 2.80458,-3.75708 c -0.9525,-0.74084 -2.32833,-1.64042 -3.33375,-2.22251 1.95792,-1.5875 3.54542,-3.38666 3.54542,-3.38666 l -3.91583,-1.58751 h 10.795 v -5.92667 h -11.53584 v -2.32833 h -6.93209 v 2.32833 H 362.2706 v 5.92667 h 10.10709 l -2.85751,3.59834 c 0,0 2.27542,0.58208 4.23334,1.74625 -1.16417,0.74084 -2.91042,1.32292 -4.445,1.64042 v -4.92125 h -5.87376 v 14.12875 h 9.73668 c -0.0529,0.635 -0.15875,1.48167 -0.37042,2.22251 h -10.42459 v 20.95501 h 6.13834 v -9.57792 l 1.48167,4.70958 c 4.1275,-0.68791 7.99042,-1.5875 11.27125,-2.48708 0.15875,0.47625 0.21167,0.89958 0.3175,1.53458 l 3.4925,-1.69333 c -0.52916,-2.54 -1.37583,-5.66209 -2.2225,-7.99042 h 3.12209 v 6.77333 c 0,2.96334 -0.42334,2.96334 -3.96875,2.96334 z m -4.07459,-39.37003 c -0.3175,0.74084 -1.27,1.74626 -2.27541,2.48709 -1.32292,-0.9525 -2.91042,-1.74625 -4.55084,-2.48709 z m -7.09083,10.95376 h -3.54542 v -3.43958 z m 0.52916,0 c 1.5875,-0.84667 3.33376,-1.95792 4.60376,-3.01625 1.21708,0.84667 2.8575,2.27542 3.43958,3.01625 z m 8.83709,12.91168 -2.8575,1.11125 c 0,0 0.47625,1.48166 0.74083,2.75166 -0.68791,0.15875 -2.27541,0.37042 -3.43958,0.52917 0.26458,-1.16417 0.635,-3.175 0.79375,-4.39208 z m -10.4775,0 c -0.21167,1.21708 -0.68792,3.54541 -1.11125,5.13292 -0.68792,0.10583 -1.37584,0.15875 -2.11667,0.15875 v -5.29167 z"
       id="text9366"
       aria-label="Kトライア瑠璃" />
  </g>
</svg>
