<?xml version="1.0" encoding="UTF-8" standalone="no"?>
<!-- Created with Inkscape (http://www.inkscape.org/) -->

<svg
   width="100"
   height="100"
   viewBox="0 0 26.458333 26.458333"
   version="1.1"
   id="svg1"
   xmlns="http://www.w3.org/2000/svg"
   xmlns:svg="http://www.w3.org/2000/svg">
  <defs
     id="defs1" />
  <g
     id="layer1"
     transform="matrix(18.897626,0,0,18.897626,-3232.325,-1216.9118)">
    <style
       id="style1">
.MsftOfcResponsive_Fill_0070c0 {
 fill:#0070C0; 
}
</style>
    <style
       id="style1-0">
.MsftOfcThm_Background1_lumMod_50_Fill_v2 {
 fill:#7F7F7F; 
}
</style>
    <g
       id="layer1-4"
       transform="matrix(0.26458333,0,0,0.26458333,171.04397,64.394954)"
       style="fill:#000000">
      <path
         d="M 0.529167,0 C 0.236008,0 0,0.236008 0,0.529167 V 4.7625 C 0,5.05566 0.236008,5.29167 0.529167,5.29167 H 4.7625 c 0.29316,0 0.52917,-0.23601 0.52917,-0.52917 V 0.529167 C 5.29167,0.236008 5.05566,0 4.7625,0 Z M 2.64583,0.79375 H 3.43958 V 1.05833 H 3.70417 V 1.32292 H 3.96875 V 1.5875 h 0.26458 v 0.26458 h 0.26459 v 1.5875 l -0.2645786,1.44e-5 V 3.7041779 H 3.7041744 V 3.9687614 L 3.175,3.96875 v 0.26458 l -0.5291597,1.49e-5 V 4.4979285 L 1.85208,4.49792 V 4.23333 H 1.5875 V 3.96875 H 1.32292 V 3.70417 H 1.05833 V 3.43958 H 0.79375 V 1.85208 H 1.05833 V 1.5875 H 1.5875 V 1.32292 H 2.11667 V 1.05833 h 0.52916 z"
         id="rect1"
         class="MsftOfcThm_Background1_lumMod_50_Fill_v2"
         stroke-width="0.264583"
         fill="#7F7F7F"
         style="fill:#000000" />
      <path
         d="m 0.529167,1.85208 v 1.5875 H 0.79375 V 3.70417 H 1.05833 V 3.96875 H 1.32292 V 4.23333 H 1.5875 V 4.49792 H 2.38125 V 4.23333 H 2.91042 V 3.96875 H 3.43958 V 4.23333 H 3.70417 V 4.49792 H 4.49792 V 4.23333 H 4.7625 V 3.43958 H 4.49792 V 3.175 H 4.23333 V 1.5875 H 3.96875 V 1.32292 H 3.70417 V 1.05833 H 2.11667 V 0.79375 H 1.5875 V 1.32292 H 1.32292 V 1.5875 H 1.05833 v 0.26458 z"
         id="path1"
         class="MsftOfcThm_Background1_lumMod_50_Fill_v2"
         stroke-width="0.264583"
         fill="#7F7F7F"
         display="none"
         style="fill:#000000" />
      <path
         d="M 2.11667,1.05833 H 1.85208 V 1.5875 H 1.5875 V 1.32292 h 0.52917 z"
         id="path2"
         class="MsftOfcThm_Background1_lumMod_50_Fill_v2"
         stroke-width="0.264583"
         fill="#7F7F7F"
         display="none"
         style="fill:#000000" />
      <path
         d="M 3.70417,1.32292 H 2.38125 V 1.5875 H 1.85208 V 1.85208 H 1.32292 V 2.11667 H 0.79375 V 2.38125 H 1.05833 V 2.64583 H 1.32292 V 2.91042 H 1.5875 V 3.175 H 1.85208 V 3.43958 H 2.11667 V 3.175 H 2.64583 V 2.64583 H 2.11667 V 2.11667 H 2.38125 V 1.85208 H 2.91042 V 2.38125 H 3.175 V 2.64583 H 3.70417 V 2.38125 H 3.96875 V 1.5875 H 3.70417 Z"
         id="path3"
         class="MsftOfcThm_Background1_lumMod_50_Fill_v2"
         stroke-width="0.264583"
         fill="#7F7F7F"
         display="none"
         style="fill:#000000" />
      <path
         d="M 2.38125,2.11667 H 2.64583 V 2.38125 H 2.91042 V 2.64583 H 3.175 V 2.91042 H 3.43958 V 3.175 H 3.70417 V 2.91042 H 3.96875 V 3.175 H 4.23333 V 3.43958 H 4.49792 V 4.23333 H 3.70417 V 3.96875 H 3.43958 V 3.70417 H 3.175 V 3.43958 H 3.43958 V 3.175 H 3.175 V 2.91042 H 2.91042 V 2.64583 H 2.64583 V 2.38125 H 2.38125 Z"
         id="path4"
         class="MsftOfcThm_Background1_lumMod_50_Fill_v2"
         stroke-width="0.264583"
         fill="#7F7F7F"
         display="none"
         style="fill:#000000" />
      <path
         d="M 2.64583,1.05833 H 3.43958 V 1.32292 H 3.70417 V 1.5875 H 3.96875 V 1.85208 H 4.23333 V 2.11667 H 3.96875 V 2.38125 H 3.43958 V 2.64583 H 2.91042 V 2.91042 H 2.38125 V 3.175 H 2.11667 V 2.91042 H 1.85208 V 2.64583 H 1.5875 V 2.38125 H 1.32292 V 2.11667 H 1.05833 V 1.85208 H 1.5875 V 1.5875 H 2.11667 V 1.32292 h 0.52916 z"
         id="path6"
         class="MsftOfcThm_Background1_lumMod_50_Fill_v2"
         stroke-width="0.264583"
         fill="#7F7F7F"
         style="fill:#000000" />
    </g>
  </g>
</svg>
