<?xml version="1.0" encoding="UTF-8" standalone="no"?>
<!-- Created with Inkscape (http://www.inkscape.org/) -->

<svg
   width="97.156174mm"
   height="26.458332mm"
   viewBox="0 0 97.156173 26.458332"
   version="1.1"
   id="svg1"
   sodipodi:docname="rewis_logo.svg"
   xmlns:inkscape="http://www.inkscape.org/namespaces/inkscape"
   xmlns:sodipodi="http://sodipodi.sourceforge.net/DTD/sodipodi-0.dtd"
   xmlns="http://www.w3.org/2000/svg"
   xmlns:svg="http://www.w3.org/2000/svg">
  <sodipodi:namedview
     id="namedview1"
     pagecolor="#ffffff"
     bordercolor="#000000"
     borderopacity="0.25"
     inkscape:showpageshadow="2"
     inkscape:pageopacity="0.0"
     inkscape:pagecheckerboard="0"
     inkscape:deskcolor="#d1d1d1"
     inkscape:document-units="mm" />
  <defs
     id="defs1" />
  <g
     inkscape:label="Layer 1"
     inkscape:groupmode="layer"
     id="layer1"
     inkscape:export-filename="rewis_logo.svg"
     inkscape:export-xdpi="96"
     inkscape:export-ydpi="96"
     transform="translate(-87.047917,-143.66875)"
     style="fill:#000000">
    <style
       id="style1">&#10;.MsftOfcThm_Background1_Fill_v2 {&#10; fill:#FFFFFF; &#10;}&#10;</style>
    <g
       id="layer1-6"
       transform="matrix(0.72639316,0,0,0.72639316,66.618473,137.86477)"
       style="fill:#000000">
      <path
         d="m 153.272,7.99014 c -4.845,0 -7.782,2.93646 -7.782,6.48956 0,3.2594 1.645,4.9334 5.227,6.2254 l 3.318,1.1452 c 2.408,0.8809 3.407,1.85 3.407,3.4943 0,1.7619 -1.41,2.9363 -3.994,2.9363 -2.378,0 -4.639,-1.7324 -5.608,-4.4338 l -3.289,2.2019 c 1.233,3.6705 4.316,5.9609 8.897,5.9609 5.403,0 8.428,-2.6427 8.428,-7.1061 0,-3.5236 -2.144,-5.5203 -5.756,-6.7536 l -3.524,-1.1451 c -2.055,-0.6754 -2.906,-1.4978 -2.906,-2.7311 0,-1.4682 1.262,-2.6722 3.729,-2.6722 2.143,0 3.817,1.0867 4.61,3.2303 l 3.201,-2.2903 C 159.967,9.42922 157.295,7.99014 153.272,7.99014 Z M 35.9002,8.18909 28.1245,31.5163 h 5.1842 l 2.4742,-7.4222 6.5976,7.4222 h 5.1836 l 6.4797,-19.4396 h 1.2961 c 3.8879,0 7.7757,-3.88761 7.7757,-3.88761 h -7.7757 -5.1837 -2.5921 c -6.4798,0 -10.3678,11.66341 -10.3678,11.66341 0,0 3.888,-7.7758 10.3678,-7.7758 h 1.2961 L 43.7943,27.2753 37.1963,19.8525 41.0844,8.18909 Z M 66.5599,8.54824 V 31.4523 h 4.2871 v -9.1912 h 4.1403 l 4.5516,9.1912 h 5.1387 l -5.6084,-9.925 c 2.4372,-0.7635 4.1109,-2.7017 4.1109,-6.3722 0,-4.111 -3.0541,-6.60686 -7.3707,-6.60686 z m 21.3186,0 V 31.4523 H 103.911 V 27.7817 H 92.2239 v -6.3133 h 9.6611 V 17.8862 H 92.2239 V 12.2188 H 103.353 V 8.54824 Z m 17.9415,0 5.05,22.90406 h 4.992 L 118.563,17.71 c 0.294,-1.4389 0.559,-3.8762 0.617,-5.0214 h 0.059 c 0.029,1.1158 0.323,3.6119 0.617,5.0214 l 2.76,13.7423 h 4.845 l 4.963,-22.90406 h -4.17 l -2.702,13.94796 c -0.176,1.0278 -0.293,2.9952 -0.381,4.4928 h -0.089 c -0.117,-1.4976 -0.293,-3.5239 -0.528,-4.5517 L 121.53,8.54824 h -4.64 l -2.848,13.91856 c -0.235,1.2333 -0.441,3.318 -0.529,4.61 h -0.088 c -0.059,-1.3801 -0.147,-3.3769 -0.411,-4.6689 L 110.165,8.54824 Z m 30.156,0 V 31.4523 h 4.464 V 8.54824 Z M 70.847,12.1894 h 4.1697 c 2.1436,0 3.7295,1.1159 3.7295,3.1713 0,2.2611 -1.4683,3.465 -3.6706,3.465 H 70.847 Z"
         id="text1"
         class="MsftOfcThm_Background1_Fill_v2"
         stroke-width="0.152937"
         fill="#FFFFFF"
         font-family="'FOT-RodinNTLG Pro'"
         font-weight="700"
         font-size="29.364px"
         style="fill:#000000" />
      <path
         d="m 51.2917,44.1599 v -1.1746 h -3.69 v -1.1549 h 2.3491 v -1.1746 h -2.3491 v -1.0375 h 2.5057 v -0.5677 c 0.2349,0.1566 0.6362,0.3132 0.9298,0.4306 l 0.4699,-1.2235 C 49.481,37.5138 48.1694,36.3491 47.6604,35.5954 h -1.2725 c -0.4894,0.8711 -1.938,2.124 -3.8662,2.6917 l 0.509,1.2333 c 0.2936,-0.0881 0.6753,-0.2643 0.92,-0.4013 v 0.4992 h 2.4568 v 1.0375 h -2.3393 v 1.1746 h 2.3393 v 1.1549 h -3.6509 v 1.1746 z m -6.2056,-5.6673 c 0.9005,-0.5774 1.6934,-1.3115 1.9674,-1.752 0.4013,0.509 1.2333,1.2822 2.0947,1.752 z m 15.8957,5.266 v -1.1942 h -6.2643 v -3.8368 h 1.1942 v 2.8972 h 3.9935 v -2.8972 h 1.3116 v -1.1452 h -1.3116 v -1.9968 h -1.2725 v 1.9968 h -1.4486 v -1.9968 h -1.2724 v 1.9968 h -1.1942 v -1.7423 h -1.3116 v 1.7423 h -1.0081 v 1.1452 h 1.0081 v 5.6672 h 1.3116 V 43.7586 Z M 58.6327,40.46 h -1.4486 v -1.7324 h 1.4486 z m 10.3361,3.9446 v -2.9364 c 0.4405,0.2741 0.9593,0.5285 1.5172,0.7439 l 0.6166,-1.2137 c -1.0277,-0.2447 -1.8401,-0.5677 -2.4568,-0.9886 h 1.6248 v -4.1795 h -7.3018 v 4.1795 h 1.5759 c -0.6754,0.509 -1.4389,0.8515 -2.4275,1.0473 l 0.6167,1.2137 c 0.5971,-0.2153 1.0473,-0.4404 1.5954,-0.832 0,1.018 -0.2349,1.4487 -1.4192,1.987 l 0.8809,0.9886 c 1.5269,-0.7831 1.6933,-1.8402 1.6933,-3.2594 h -0.7439 c 0.5482,-0.4013 0.9886,-0.8614 1.2235,-1.1452 h 1.2725 c 0.3425,0.4013 0.7243,0.7341 1.2528,1.1354 h -0.6949 v 3.2594 z m 0.1077,-6.9299 h -1.9478 v -0.6852 h 1.9478 z m -3.1224,0 h -1.8107 v -0.6852 h 1.8107 z m 3.1224,1.5759 H 67.1287 V 38.336 h 1.9478 z m -3.1224,0 H 64.1434 V 38.336 h 1.8107 z M 80.7927,43.23 c -0.9103,-0.597 -1.3116,-1.4682 -1.6052,-2.5351 h 1.4193 v -1.1354 h -1.6151 c 0.0392,-0.4306 0.0392,-1.0081 0.0392,-1.4584 h 1.3409 v -1.1256 h -1.3409 v -1.3801 h -1.1648 v 1.3801 h -0.3523 c 0.0587,-0.3426 0.0978,-0.7243 0.1076,-1.1158 l -1.0081,-0.0979 c -0.049,0.969 -0.3035,1.9576 -0.7244,2.7896 l 0.9691,0.7341 c 0,0 0.2055,-0.4698 0.4013,-1.1844 h 0.6068 c 0,0.4601 -0.0098,1.0473 -0.0489,1.4584 h -1.7716 v 1.1354 h 1.5562 c -0.2544,0.8614 -0.8026,1.6738 -1.6052,2.2611 v -0.4699 c 0,0 -0.7047,0.2154 -1.4095,0.3328 v -2.2218 h 1.155 v -1.0473 h -1.155 v -0.6461 h 0.6558 V 38.062 c 0.1273,0.1174 0.2643,0.2055 0.4405,0.323 l 0.5481,-1.1452 C 75.517,36.8091 74.9787,36.2512 74.6263,35.6541 h -1.0767 c -0.3426,0.7243 -0.9005,1.3312 -1.5661,1.7325 l 0.3133,1.3214 c 0.2055,-0.1273 0.411,-0.2937 0.5872,-0.4698 v 0.6655 h 0.6362 v 0.6461 h -1.3017 v 1.0473 h 1.3017 v 2.4274 c -0.4306,0.0685 -0.9787,0.1174 -1.4779,0.1468 l 0.2642,1.1452 c 1.2921,-0.1566 2.6428,-0.4013 3.6118,-0.6852 l 0.4992,0.7635 c 0.8613,-0.6558 1.5954,-1.5465 1.987,-2.8091 0.2447,1.1354 0.7145,2.0652 1.6248,2.8189 z M 75.517,42.5351 c 0.3132,-0.7928 0.4111,-1.4976 0.4111,-1.4976 L 75.0863,40.783 c 0,0 -0.1076,0.8027 -0.3523,1.4976 z m -2.1436,0.0587 c -0.0391,-0.5579 -0.137,-1.2626 -0.2447,-1.7325 l -0.8809,0.186 c 0.2056,0.8907 0.2937,1.801 0.2937,1.801 z M 73.256,37.8662 c 0.323,-0.3621 0.597,-0.7732 0.832,-1.1843 0.2447,0.4209 0.5579,0.7928 0.9102,1.1843 z m 10.7766,-0.5677 c 0,0 -0.5188,-0.8515 -1.204,-1.5954 l -0.9494,0.783 c 0.6656,0.7537 1.2626,1.5563 1.2626,1.5563 z m 6.0391,5.2562 v -4.7178 h -2.3099 c 0.0489,-0.1077 0.1076,-0.2741 0.137,-0.3916 h 2.584 v -1.0277 h -1.2724 c 0.1664,-0.186 0.2839,-0.3915 0.3719,-0.6167 l -1.1549,-0.1957 c -0.0979,0.2936 -0.2447,0.5971 -0.3818,0.8124 h -1.2528 c -0.0783,-0.2447 -0.2154,-0.5481 -0.3524,-0.8124 l -1.1452,0.2643 c 0.1566,0.1859 0.2936,0.3817 0.372,0.5481 h -1.3606 v 1.0277 h 2.3002 c -0.0294,0.1273 -0.0783,0.2741 -0.137,0.3916 h -1.6542 v 4.7178 z m 0.1077,1.6541 0.4013,-1.2626 -4.6297,0.0685 h -0.0587 c -0.8614,0 -1.3899,-0.1958 -1.7325,-0.7243 v -3.2692 h -2.1925 v 1.1746 h 1.0179 v 2.212 c 0,0 -0.46,0.5873 -1.2235,0.9201 l 0.7733,1.0669 c 0.4502,-0.3034 0.7732,-0.6068 1.0473,-0.9886 0.5286,0.5971 1.1941,0.8026 2.2415,0.8026 z m -1.2822,-5.0604 h -2.907 v -0.411 h 2.907 z m 0,1.2333 h -2.907 v -0.4404 h 2.907 z m 0,1.2529 h -2.907 v -0.46 h 2.907 z m 3.5139,-0.9005 c 0.1762,-1.3116 0.1859,-3.0049 0.1859,-3.5237 v -0.1468 l -0.8319,-0.186 v 0.3132 c 0,0.6167 -0.0196,1.987 -0.2056,2.9462 z m 7.9479,-1.3507 v -0.9691 h -2.2122 v -0.3817 h 1.7521 V 37.23 h -1.7521 v -0.3524 h 1.9872 v -0.9103 h -1.9872 v -0.3719 h -1.243 v 0.3719 h -2.0653 v 0.9103 h 2.0653 V 37.23 h -1.7814 v 0.8026 h 1.7814 v 0.3817 h -1.9185 c -0.186,-0.7341 -0.4404,-1.5367 -0.4404,-1.5367 l -0.6069,0.3035 v -1.5857 h -1.1746 v 8.8092 h 1.1746 v -6.9397 c 0,0 0.2545,0.969 0.3524,1.5955 l 0.4013,-0.2447 v 0.5677 z m -2.31,5.0114 c 1.8988,-0.0881 2.026,-0.2643 2.026,-1.6835 v -2.956 h -5.168 v 4.6493 h 1.2039 v -1.3997 h 2.7602 c 0,0.3524 -0.0489,0.3524 -1.2332,0.3524 z m 0.8221,-3.3475 h -2.7602 v -0.4111 h 2.7602 z m 0,1.1942 h -2.7602 v -0.4307 h 2.7602 z m 5.3149,2.1631 v -1.4682 h 1.409 v -1.0865 h -1.409 v -0.783 h 1.537 v -1.0865 h -0.725 c 0.118,-0.3426 0.216,-0.7439 0.265,-0.9788 h 0.489 v -1.0767 h -1.566 v -0.6558 h 1.361 V 36.212 h -1.361 v -0.6166 h -1.175 v 0.6166 h -1.37 v 1.0571 h 1.37 v 0.6558 h -1.663 v 1.0767 h 0.567 c 0.079,0.2251 0.196,0.6265 0.294,0.9788 h -0.734 v 1.0865 h 1.536 v 0.783 h -1.409 v 1.0865 h 1.409 v 1.4682 z m 6.039,-1.0277 c -0.382,-0.186 -0.675,-0.372 -0.969,-0.6558 0.548,-1.018 0.773,-2.7505 0.773,-3.6314 h -2.965 v -2.1436 h 1.791 v 0.235 c 0,0.46 -0.01,0.4796 -0.832,0.4796 h -0.313 l 0.479,1.0669 c 1.694,0 1.84,-0.2545 1.84,-2.0457 v -0.8516 h -4.091 v 8.5743 h 1.126 v -0.8907 l 0.607,0.8907 c 0.371,-0.2447 0.675,-0.5188 0.959,-0.8809 0.284,0.3426 0.567,0.6068 0.93,0.8809 z m -6.969,-3.3965 c -0.068,-0.3426 -0.176,-0.7243 -0.254,-0.9788 h 1.184 c -0.049,0.2643 -0.157,0.6656 -0.284,0.9788 z m 5.687,0.1958 c -0.01,0.4796 -0.127,1.1452 -0.323,1.7031 -0.186,-0.5286 -0.313,-1.1941 -0.323,-1.7031 z m -1.654,0 c 0.068,0.832 0.313,1.6639 0.744,2.5449 -0.304,0.3034 -0.607,0.4991 -0.969,0.6362 v -3.1811 z m 8.672,-3.6901 c -1.272,-0.1664 -2.907,-0.3132 -4.15,-0.3524 v 1.2529 c 1.194,0.0294 2.907,0.2056 4.15,0.3817 z m -0.088,2.7406 c -1.233,-0.1859 -2.897,-0.323 -4.15,-0.3621 v 1.2529 c 1.174,0.0293 2.868,0.1859 4.15,0.3719 z m -3.935,4.8843 c 4.493,-0.0686 7.37,-1.801 7.752,-6.5776 h -1.399 c -0.392,3.7684 -2.32,5.1387 -6.353,5.2758 z m 17.002,-1.2921 c -0.91,-0.5481 -1.919,-1.3899 -2.477,-2.7308 0.656,-1.0669 1.126,-2.3198 1.293,-3.7977 h -6.519 v 1.2528 h 4.855 c -0.764,2.7994 -3.103,4.6689 -5.325,5.3149 v 1.292 c 1.654,-0.4013 3.435,-1.3409 4.806,-2.8679 0.724,1.2823 1.869,2.3883 3.367,2.9658 z m 8.515,-5.3834 v -1.2332 h -7.204 v 1.2332 z m 0.578,2.496 v -1.2137 h -8.388 v 1.2137 h 4.032 c -0.196,1.6052 -1.272,2.7015 -3.152,2.9951 v 1.2627 c 2.389,-0.3035 4.297,-1.5368 4.64,-4.2578 z m 9.445,4.1012 c -0.626,-1.9968 -1.468,-3.8174 -2.271,-5.2856 h -1.468 c 0.646,1.2235 1.439,2.77 1.86,4.0327 h -5.188 c 0.891,-1.987 1.743,-4.0718 2.457,-6.6852 h -1.448 c -0.539,2.0848 -1.674,5.1974 -2.477,6.7635 v 1.1648 z"
         id="text5"
         class="MsftOfcThm_Background1_Fill_v2"
         stroke-width="0.152937"
         fill="#FFFFFF"
         font-family="'FOT-RodinNTLG Pro'"
         font-weight="700"
         font-size="9.78799px"
         style="fill:#000000" />
    </g>
  </g>
</svg>
