<?xml version="1.0" encoding="UTF-8" standalone="no"?>
<!-- Created with Inkscape (http://www.inkscape.org/) -->

<svg
   width="26.458332mm"
   height="26.458332mm"
   viewBox="0 0 26.458332 26.458332"
   version="1.1"
   id="svg1"
   xmlns="http://www.w3.org/2000/svg"
   xmlns:svg="http://www.w3.org/2000/svg">
  <defs
     id="defs1" />
  <g
     id="layer1"
     transform="matrix(18.897626,0,0,18.897626,-3209.4944,-1136.9163)">
    <g
       id="layer1-7"
       transform="matrix(0.26458333,0,0,0.26458333,169.83585,60.161856)"
       style="fill:#000000">
      <path
         d="M 0.529167,0 C 0.236009,0 0,0.236009 0,0.529167 V 4.7625 C 0,5.05566 0.236009,5.29167 0.529167,5.29167 H 4.7625 c 0.29316,0 0.52917,-0.23601 0.52917,-0.52917 V 0.529167 C 5.29167,0.236009 5.05566,0 4.7625,0 Z M 1.5875,0.79375 h 0.52917 v 0.26458 h 1.5875 V 1.32292 H 3.96875 V 1.5875 H 4.23333 V 3.175 H 4.49792 V 3.43958 H 4.7625 V 4.23333 H 4.49792 V 4.49792 H 3.70417 V 4.23333 H 3.43958 V 3.96875 H 2.91042 V 4.23333 H 2.38125 V 4.49792 H 1.5875 V 4.23333 H 1.32292 V 3.96875 H 1.05833 V 3.70417 H 0.79375 V 3.43958 H 0.529167 V 1.85208 H 1.05833 V 1.5875 H 1.32292 V 1.32292 H 1.5875 Z"
         id="rect1"
         stroke-width="0.264583"
         fill="#0070c0"
         style="fill:#000000" />
      <path
         d="M 2.11667,1.05833 H 1.85208 V 1.5875 H 1.5875 V 1.32292 h 0.52917 z"
         id="path2"
         stroke-width="0.264583"
         fill="#0070c0"
         style="fill:#000000" />
      <path
         d="M 3.70417,1.32292 H 2.38125 V 1.5875 H 1.85208 V 1.85208 H 1.32292 V 2.11667 H 0.79375 V 2.38125 H 1.05833 V 2.64583 H 1.32292 V 2.91042 H 1.5875 V 3.175 H 1.85208 V 3.43958 H 2.11667 V 3.175 H 2.64583 V 2.64583 H 2.38125 L 2.3812567,2.3812608 2.11667,2.38125 V 2.11667 H 2.38125 V 1.85208 l 0.2645902,1.37e-5 V 2.1166773 L 2.91042,2.116665 V 2.38125 H 3.175 V 2.64583 H 3.70417 V 2.38125 H 3.96875 V 1.5875 H 3.70417 Z"
         id="path3"
         stroke-width="0.264583"
         fill="#0070c0"
         style="fill:#000000" />
      <path
         d="M 2.38125,2.11667 H 2.64583 V 2.38125 H 2.91042 V 2.64583 H 3.175 V 2.91042 H 3.43958 V 3.175 H 3.70417 V 2.91042 H 3.96875 V 3.175 H 4.23333 V 3.43958 H 4.49792 V 4.23333 H 3.70417 V 3.96875 H 3.43958 V 3.70417 H 3.175 V 3.43958 H 3.43958 V 3.175 H 3.175 V 2.91042 H 2.91042 V 2.64583 H 2.64583 V 2.38125 H 2.38125 Z"
         id="path4"
         stroke-width="0.264583"
         fill="#0070c0"
         style="fill:#000000" />
    </g>
  </g>
</svg>
