<?xml version="1.0" encoding="UTF-8" standalone="no"?>
<!-- Created with Inkscape (http://www.inkscape.org/) -->

<svg
   width="26.458332mm"
   height="26.458334mm"
   viewBox="0 0 26.458332 26.458334"
   version="1.1"
   id="svg1"
   xmlns:inkscape="http://www.inkscape.org/namespaces/inkscape"
   xmlns:sodipodi="http://sodipodi.sourceforge.net/DTD/sodipodi-0.dtd"
   xmlns="http://www.w3.org/2000/svg"
   xmlns:svg="http://www.w3.org/2000/svg">
  <sodipodi:namedview
     id="namedview1"
     pagecolor="#ffffff"
     bordercolor="#000000"
     borderopacity="0.25"
     inkscape:showpageshadow="2"
     inkscape:pageopacity="0.0"
     inkscape:pagecheckerboard="0"
     inkscape:deskcolor="#d1d1d1"
     inkscape:document-units="mm" />
  <defs
     id="defs1" />
  <g
     inkscape:label="Layer 1"
     inkscape:groupmode="layer"
     id="layer1"
     transform="matrix(18.897626,0,0,18.897626,-3193.4312,-1185.9555)">
    <style
       id="style1">&#10;.MsftOfcResponsive_Fill_0070c0 {&#10; fill:#0070C0; &#10;}&#10;</style>
    <g
       id="layer1-4"
       transform="matrix(0.26458333,0,0,0.26458333,168.98584,62.756851)"
       style="fill:#000000"
       inkscape:export-filename="tc.svg"
       inkscape:export-xdpi="96"
       inkscape:export-ydpi="96">
      <path
         d="M 0.529167,0 C 0.236008,0 0,0.236008 0,0.529167 V 4.7625 C 0,5.05566 0.236008,5.29167 0.529167,5.29167 H 4.7625 c 0.29316,0 0.52917,-0.23601 0.52917,-0.52917 V 0.529167 C 5.29167,0.236008 5.05566,0 4.7625,0 Z M 1.05833,1.05833 h 3.175 V 3.175 H 2.91042 V 4.23333 H 2.38125 V 3.175 H 1.05833 Z"
         id="rect1"
         class="MsftOfcResponsive_Fill_0070c0"
         stroke-width="0.264583"
         fill="#0070C0"
         style="fill:#000000" />
      <path
         d="m 0.529167,1.85208 v 1.5875 H 0.79375 V 3.70417 H 1.05833 V 3.96875 H 1.32292 V 4.23333 H 1.5875 V 4.49792 H 2.38125 V 4.23333 H 2.91042 V 3.96875 H 3.43958 V 4.23333 H 3.70417 V 4.49792 H 4.49792 V 4.23333 H 4.7625 V 3.43958 H 4.49792 V 3.175 H 4.23333 V 1.5875 H 3.96875 V 1.32292 H 3.70417 V 1.05833 H 2.11667 V 0.79375 H 1.5875 V 1.32292 H 1.32292 V 1.5875 H 1.05833 v 0.26458 z"
         id="path1"
         class="MsftOfcResponsive_Fill_0070c0"
         stroke-width="0.264583"
         fill="#0070C0"
         display="none"
         style="fill:#000000" />
      <path
         d="M 2.11667,1.05833 H 1.85208 V 1.5875 H 1.5875 V 1.32292 h 0.52917 z"
         id="path2"
         class="MsftOfcResponsive_Fill_0070c0"
         stroke-width="0.264583"
         fill="#0070C0"
         display="none"
         style="fill:#000000" />
      <path
         d="M 3.70417,1.32292 H 2.38125 V 1.5875 H 1.85208 V 1.85208 H 1.32292 V 2.11667 H 0.79375 V 2.38125 H 1.05833 V 2.64583 H 1.32292 V 2.91042 H 1.5875 V 3.175 H 1.85208 V 3.43958 H 2.11667 V 3.175 H 2.64583 V 2.64583 H 2.11667 V 2.11667 H 2.38125 V 1.85208 H 2.91042 V 2.38125 H 3.175 V 2.64583 H 3.70417 V 2.38125 H 3.96875 V 1.5875 H 3.70417 Z"
         id="path3"
         class="MsftOfcResponsive_Fill_0070c0"
         stroke-width="0.264583"
         fill="#0070C0"
         display="none"
         style="fill:#000000" />
      <path
         d="M 2.38125,2.11667 H 2.64583 V 2.38125 H 2.91042 V 2.64583 H 3.175 V 2.91042 H 3.43958 V 3.175 H 3.70417 V 2.91042 H 3.96875 V 3.175 H 4.23333 V 3.43958 H 4.49792 V 4.23333 H 3.70417 V 3.96875 H 3.43958 V 3.70417 H 3.175 V 3.43958 H 3.43958 V 3.175 H 3.175 V 2.91042 H 2.91042 V 2.64583 H 2.64583 V 2.38125 H 2.38125 Z"
         id="path4"
         class="MsftOfcResponsive_Fill_0070c0"
         stroke-width="0.264583"
         fill="#0070C0"
         display="none"
         style="fill:#000000" />
      <path
         d="M 1.85208,4.49792 H 2.91042 V 4.23333 H 3.175 V 3.96875 H 3.96875 V 3.70417 H 4.23333 V 3.43958 H 4.49792 V 1.85208 H 4.23333 V 1.5875 H 3.96875 V 1.32292 H 3.70417 V 1.05833 H 3.43958 V 0.79375 H 2.64583 V 1.05833 H 2.11667 V 1.32292 H 1.5875 V 1.5875 H 1.05833 V 1.85208 H 0.79375 v 1.5875 H 1.05833 V 3.70417 H 1.32292 V 3.96875 H 1.5875 v 0.26458 h 0.26458 z"
         id="path5"
         class="MsftOfcResponsive_Fill_0070c0"
         stroke-width="0.264583"
         fill="#0070C0"
         display="none"
         style="fill:#000000" />
      <path
         d="M 2.64583,1.05833 H 3.43958 V 1.32292 H 3.70417 V 1.5875 H 3.96875 V 1.85208 H 4.23333 V 2.11667 H 3.96875 V 2.38125 H 3.43958 V 2.64583 H 2.91042 V 2.91042 H 2.38125 V 3.175 H 2.11667 V 2.91042 H 1.85208 V 2.64583 H 1.5875 V 2.38125 H 1.32292 V 2.11667 H 1.05833 V 1.85208 H 1.5875 V 1.5875 H 2.11667 V 1.32292 h 0.52916 z"
         id="path6"
         class="MsftOfcResponsive_Fill_0070c0"
         stroke-width="0.264583"
         fill="#0070C0"
         display="none"
         style="fill:#000000" />
      <path
         d="M 1.32292,1.32292 V 1.85208 H 1.85208 V 1.5875 H 1.5875 V 1.32292 Z"
         id="path8"
         class="MsftOfcResponsive_Fill_0070c0"
         stroke-width="0.264583"
         fill="#0070C0"
         style="fill:#000000" />
      <path
         d="M 2.11667,1.5875 V 1.85208 H 2.64583 V 1.5875 Z"
         id="path9"
         class="MsftOfcResponsive_Fill_0070c0"
         stroke-width="0.264583"
         fill="#0070C0"
         style="fill:#000000" />
      <path
         d="M 2.91042,1.32292 V 1.85208 H 3.96875 V 1.32292 H 3.70417 V 1.5875 H 3.43958 V 1.32292 Z"
         id="path10"
         class="MsftOfcResponsive_Fill_0070c0"
         stroke-width="0.264583"
         fill="#0070C0"
         style="fill:#000000" />
      <path
         d="M 1.85208,2.11667 V 2.64583 H 1.32292 V 2.38125 H 1.5875 V 2.11667 Z"
         id="path11"
         class="MsftOfcResponsive_Fill_0070c0"
         stroke-width="0.264583"
         fill="#0070C0"
         style="fill:#000000" />
      <path
         d="M 2.11667,2.11667 V 2.64583 H 3.43958 V 2.11667 H 3.175 V 2.38125 H 2.64583 V 2.11667 Z"
         id="path12"
         class="MsftOfcResponsive_Fill_0070c0"
         stroke-width="0.264583"
         fill="#0070C0"
         style="fill:#000000" />
      <path
         d="M 3.70417,2.11667 V 2.64583 H 3.96875 V 2.11667 Z"
         id="path13"
         class="MsftOfcResponsive_Fill_0070c0"
         stroke-width="0.264583"
         fill="#0070C0"
         style="fill:#000000" />
    </g>
  </g>
</svg>
